<svg xmlns="http://www.w3.org/2000/svg" viewBox="0 0 32 32" width="32" height="32">
  <!-- Graduation Cap -->
  <!-- Cap top (square) -->
  <rect x="8" y="4" width="16" height="10" fill="#B19CD9" stroke="#2E4A6B" stroke-width="1" rx="1"/>
  
  <!-- Cap band -->
  <rect x="7" y="14" width="18" height="3" fill="#E67E22" stroke="#2E4A6B" stroke-width="1" rx="1.5"/>
  
  <!-- Tassel -->
  <line x1="16" y1="4" x2="16" y2="20" stroke="#F1C40F" stroke-width="1"/>
  <circle cx="16" cy="20" r="1.5" fill="#2E4A6B"/>
  <circle cx="16" cy="20" r="0.5" fill="#F1C40F"/>
  
  <!-- Open Book -->
  <!-- Left page -->
  <path d="M 6 18 L 6 28 L 14 28 L 14 18 Z" fill="#E8F4FD" stroke="#2E4A6B" stroke-width="1"/>
  
  <!-- Right page -->
  <path d="M 18 18 L 18 28 L 26 28 L 26 18 Z" fill="#E8F4FD" stroke="#2E4A6B" stroke-width="1"/>
  
  <!-- Book spine/binding -->
  <rect x="14" y="18" width="4" height="10" fill="#A0522D" stroke="#2E4A6B" stroke-width="1"/>
  
  <!-- Book pages lines (optional detail) -->
  <line x1="8" y1="21" x2="12" y2="21" stroke="#2E4A6B" stroke-width="0.5" opacity="0.3"/>
  <line x1="8" y1="23" x2="12" y2="23" stroke="#2E4A6B" stroke-width="0.5" opacity="0.3"/>
  <line x1="8" y1="25" x2="12" y2="25" stroke="#2E4A6B" stroke-width="0.5" opacity="0.3"/>
  
  <line x1="20" y1="21" x2="24" y2="21" stroke="#2E4A6B" stroke-width="0.5" opacity="0.3"/>
  <line x1="20" y1="23" x2="24" y2="23" stroke="#2E4A6B" stroke-width="0.5" opacity="0.3"/>
  <line x1="20" y1="25" x2="24" y2="25" stroke="#2E4A6B" stroke-width="0.5" opacity="0.3"/>
</svg>