<svg xmlns="http://www.w3.org/2000/svg" viewBox="0 0 16 16" width="16" height="16">
  <defs>
    <linearGradient id="charcoal16" x1="0%" y1="0%" x2="100%" y2="100%">
      <stop offset="0%" stop-color="#080809"/>
      <stop offset="100%" stop-color="#19191d"/>
    </linearGradient>
  </defs>

  <rect width="16" height="16" rx="3.2" fill="url(#charcoal16)" stroke="#262626" stroke-width="0.5"/>
  <path d="M4 11h8" stroke="#f97316" stroke-width="0.7" stroke-linecap="round"/>
  <path d="M4.3 9.4h7.4" stroke="#fbbf24" stroke-width="0.6" stroke-linecap="round"/>

  <path d="M3.9 6.2c1-0.7 2.1-1 3.3-0.7c0.3 0.1 0.6 0.2 0.9 0.2s0.6 0.2 0.9 0.2c1.2 0.2 2.3 0 3.3-0.7v3.4c-1 0.7-2.1 1-3.3 0.7c-0.3-0.1-0.6-0.2-0.9-0.2s-0.6-0.2-0.9-0.2c-1.2-0.2-2.3 0-3.3 0.7V6.2z"
        fill="#fff9e6" stroke="rgba(34,34,34,0.4)" stroke-width="0.35"/>

  <path d="M3.9 6l4-2.4l4 2.4l-4 2.2z" fill="#070708" stroke="#facc15" stroke-width="0.45"/>
  <path d="M8 8v2.2" stroke="#facc15" stroke-width="0.45" stroke-linecap="round"/>
  <path d="M8 10.6l-0.55-0.8h1.1z" fill="#f97316"/>
  <path d="M5.7 6.9h4.5v1.6c-1.6 0.5-2.9 0.5-4.5 0z" fill="#101012" stroke="#facc15" stroke-width="0.35" stroke-linejoin="round"/>
  <circle cx="12" cy="5.9" r="0.45" fill="#fbbf24" stroke="#fde047" stroke-width="0.2"/>
  <path d="M12 5.9l1 1.5" stroke="#fde047" stroke-width="0.25" stroke-linecap="round"/>

  <ellipse cx="8" cy="12.5" rx="3.3" ry="0.6" fill="rgba(250,204,21,0.18)"/>
</svg>

