<svg xmlns="http://www.w3.org/2000/svg" viewBox="0 0 32 32" width="32" height="32">
  <defs>
    <linearGradient id="charcoal32" x1="0%" y1="0%" x2="100%" y2="100%">
      <stop offset="0%" stop-color="#080809"/>
      <stop offset="100%" stop-color="#19191d"/>
    </linearGradient>
  </defs>

  <rect width="32" height="32" rx="9" fill="url(#charcoal32)" stroke="#262626" stroke-width="1.2"/>
  <rect x="2" y="2" width="28" height="28" rx="7.2" fill="none" stroke="rgba(255,255,255,0.1)" stroke-width="0.9"/>

  <path d="M8 22h16" stroke="#f97316" stroke-width="1.3" stroke-linecap="round"/>
  <path d="M9 19h14" stroke="#fbbf24" stroke-width="1.2" stroke-linecap="round"/>

  <path d="M7.5 12c2-1.4 4.1-2 6.5-1.6c0.7 0.1 1.3 0.3 1.8 0.4s1.1 0.3 1.8 0.4c2.4 0.4 4.5-0.2 6.5-1.6v6.5c-2 1.4-4.1 2-6.5 1.6c-0.7-0.1-1.3-0.3-1.8-0.4s-1.1-0.3-1.8-0.4c-2.4-0.4-4.5 0.2-6.5 1.6V12z"
        fill="#fff9e6" stroke="rgba(34,34,34,0.4)" stroke-width="0.8"/>
  <path d="M8.1 12.7c2.1-1.3 4.2-1.3 6.3 0" stroke="#f59e0b" stroke-width="1" stroke-linecap="round" opacity="0.85"/>
  <path d="M17.6 12.7c2.1-1.3 4.2-1.3 6.3 0" stroke="#f97316" stroke-width="1" stroke-linecap="round" opacity="0.85"/>

  <path d="M8 11.5l8-4.6l8 4.6l-8 4.3z" fill="#070708" stroke="#facc15" stroke-width="0.9"/>
  <path d="M16 15v4.2" stroke="#facc15" stroke-width="1" stroke-linecap="round"/>
  <path d="M16 19.8l-0.8-1.4h1.6z" fill="#f97316"/>
  <path d="M11.8 13.2h8.4v3c-2.8 0.9-5.6 0.9-8.4 0z" fill="#101012" stroke="#facc15" stroke-width="0.8" stroke-linejoin="round"/>
  <circle cx="23.5" cy="11.2" r="1" fill="#fbbf24" stroke="#fde047" stroke-width="0.35"/>
  <path d="M23.5 11.2l2 3" stroke="#fde047" stroke-width="0.5" stroke-linecap="round"/>

  <ellipse cx="16" cy="24.5" rx="6.5" ry="1.4" fill="rgba(250,204,21,0.18)"/>
</svg>

