<svg xmlns="http://www.w3.org/2000/svg" viewBox="0 0 64 64" width="64" height="64">
  <!-- Graduation Cap -->
  <!-- Cap top (square) -->
  <rect x="16" y="8" width="32" height="20" fill="#B19CD9" stroke="#2E4A6B" stroke-width="2" rx="2"/>
  
  <!-- Cap band -->
  <rect x="14" y="28" width="36" height="6" fill="#E67E22" stroke="#2E4A6B" stroke-width="2" rx="3"/>
  
  <!-- Tassel -->
  <line x1="32" y1="8" x2="32" y2="40" stroke="#F1C40F" stroke-width="2"/>
  <circle cx="32" cy="40" r="3" fill="#2E4A6B"/>
  <circle cx="32" cy="40" r="1" fill="#F1C40F"/>
  
  <!-- Open Book -->
  <!-- Left page -->
  <path d="M 12 36 L 12 56 L 28 56 L 28 36 Z" fill="#E8F4FD" stroke="#2E4A6B" stroke-width="2"/>
  
  <!-- Right page -->
  <path d="M 36 36 L 36 56 L 52 56 L 52 36 Z" fill="#E8F4FD" stroke="#2E4A6B" stroke-width="2"/>
  
  <!-- Book spine/binding -->
  <rect x="28" y="36" width="8" height="20" fill="#A0522D" stroke="#2E4A6B" stroke-width="2"/>
  
  <!-- Book pages lines (optional detail) -->
  <line x1="16" y1="42" x2="24" y2="42" stroke="#2E4A6B" stroke-width="1" opacity="0.3"/>
  <line x1="16" y1="46" x2="24" y2="46" stroke="#2E4A6B" stroke-width="1" opacity="0.3"/>
  <line x1="16" y1="50" x2="24" y2="50" stroke="#2E4A6B" stroke-width="1" opacity="0.3"/>
  
  <line x1="40" y1="42" x2="48" y2="42" stroke="#2E4A6B" stroke-width="1" opacity="0.3"/>
  <line x1="40" y1="46" x2="48" y2="46" stroke="#2E4A6B" stroke-width="1" opacity="0.3"/>
  <line x1="40" y1="50" x2="48" y2="50" stroke="#2E4A6B" stroke-width="1" opacity="0.3"/>
</svg>